<svg xmlns="http://www.w3.org/2000/svg" width="24" height="24" viewBox="0 0 24 24"><g stroke="#7e8c99" stroke-linejoin="round" stroke-miterlimit="10" fill="none"><path d="M10.688 11.375c1.587 1.168 1.498 3.432.875 4.375-.428-.352-.81-.734-.875-1.313-1.461.579-2.188 1.723-2.188 3.063 0 1.932 1.566 3.5 3.5 3.5 1.933 0 3.5-1.568 3.5-3.5 0-2.825-2.033-5.485-4.812-6.125zM4.5 9.5h15l-2 12h-11zM9.5 4.5h5l5 3h-15zM4.5 21.5h15v2h-15zM2.5 7.5h19v2h-19zM9.996 4.496s-.496-.936-.496-1.496c0-1.381 1.119-2.5 2.5-2.5s2.5 1.119 2.5 2.5c0 .563-.5 1.5-.5 1.5"/></g></svg>