<svg xmlns="http://www.w3.org/2000/svg" width="24" height="24" viewBox="0 0 24 24"><g stroke="#7e8c99" stroke-linejoin="round" stroke-miterlimit="10" fill="none"><path d="M7 23.5h10l-5-10z"/><path stroke-linecap="round" d="M20.307 19.949c1.976-2.066 3.193-4.865 3.193-7.949 0-6.352-5.148-11.5-11.5-11.5s-11.5 5.148-11.5 11.5c0 3.084 1.217 5.883 3.193 7.949M5.908 16.363c-.883-1.23-1.408-2.734-1.408-4.363 0-4.143 3.357-7.5 7.5-7.5 4.142 0 7.5 3.357 7.5 7.5 0 1.629-.525 3.133-1.408 4.363M8.508 12.153l-.008-.153c0-1.957 1.6-3.5 3.5-3.5 1.903 0 3.5 1.545 3.5 3.5l-.008.153M12 13.5v-2"/><path d="M7.021 23.5l7.479-5M17 23.5l-7.5-5M10.271 17h3.458"/></g></svg>